<svg width="387" height="432" xmlns="http://www.w3.org/2000/svg" xmlns:xlink="http://www.w3.org/1999/xlink" xml:space="preserve" overflow="hidden"><g transform="translate(-446 -52)"><g><g><g><g><path d="M217.148 108.312 306.254 185.986C312.831 191.715 313.767 201.599 308.376 208.462L219.27 321.979C209.661 334.234 189.98 327.432 189.98 311.858L189.98 120.667C189.98 106.602 206.541 99.0646 217.148 108.312Z" stroke="#333333" stroke-width="3.74394" stroke-linecap="butt" stroke-linejoin="miter" stroke-miterlimit="10" stroke-opacity="1" fill="#69895D" fill-rule="nonzero" fill-opacity="1" transform="matrix(1 0 0 1.0059 447 53.435)"/><path d="M165.295 108.312 254.401 185.986C260.977 191.715 261.913 201.599 256.522 208.462L215.089 261.252 167.416 321.979C157.807 334.234 138.126 327.432 138.126 311.858L138.126 120.667C138.139 106.602 154.7 99.0646 165.295 108.312Z" stroke="#333333" stroke-width="3.74394" stroke-linecap="butt" stroke-linejoin="miter" stroke-miterlimit="10" stroke-opacity="1" fill="#FBF9F1" fill-rule="nonzero" fill-opacity="1" transform="matrix(1 0 0 1.0059 447 53.435)"/><path d="M101.298 103.383 190.404 181.057C196.981 186.785 197.917 196.669 192.526 203.533L103.42 317.049C93.8106 329.304 74.13 322.503 74.13 306.928L74.13 115.738C74.1424 101.673 90.6907 94.1476 101.298 103.383Z" stroke="#333333" stroke-width="3.74394" stroke-linecap="butt" stroke-linejoin="miter" stroke-miterlimit="10" stroke-opacity="1" fill="#00A99D" fill-rule="nonzero" fill-opacity="1" transform="matrix(1 0 0 1.0059 447 53.435)"/></g></g></g></g></g></svg>